<?xml version="1.0" standalone="no"?>
<!DOCTYPE svg PUBLIC "-//W3C//DTD SVG 20010904//EN"
 "http://www.w3.org/TR/2001/REC-SVG-20010904/DTD/svg10.dtd">
<svg version="1.0" xmlns="http://www.w3.org/2000/svg"
 width="321.000000pt" height="95.000000pt" viewBox="0 0 321.000000 95.000000"
 preserveAspectRatio="xMidYMid meet">
<metadata>
Created by potrace 1.16, written by Peter Selinger 2001-2019
</metadata>
<g transform="translate(0.000000,95.000000) scale(0.100000,-0.100000)"
fill="#000000" stroke="none">
<path d="M370 775 c-7 -9 -28 -15 -51 -15 l-39 0 0 -115 c0 -114 0 -115 -24
-115 -13 0 -29 7 -36 15 -17 21 -47 19 -60 -4 -10 -21 -4 -51 11 -51 15 0 10
-79 -7 -106 -15 -23 -15 -26 0 -43 20 -22 21 -84 1 -114 -13 -20 -13 -25 1
-45 18 -26 37 -28 54 -7 7 8 28 15 46 15 19 0 34 5 34 10 0 6 -14 10 -31 10
-40 0 -58 23 -59 76 0 52 13 64 72 64 26 0 48 5 48 10 0 6 -22 10 -48 10 -60
0 -72 12 -72 70 0 54 13 70 57 70 l32 0 3 113 3 112 28 3 c43 5 57 -13 57 -74
0 -41 4 -54 15 -54 11 0 15 12 15 50 0 28 6 59 12 70 25 39 -32 81 -62 45z"/>
<path d="M660 491 l0 -301 50 0 50 0 2 220 3 221 170 -221 170 -220 53 0 52 0
0 300 0 300 -50 0 -50 0 -2 -221 -3 -221 -170 218 -170 219 -52 3 -53 3 0
-300z"/>
<path d="M1910 490 l0 -302 158 5 c111 3 170 9 203 21 105 38 167 126 176 250
8 104 -14 174 -75 235 -70 70 -115 83 -304 89 l-158 4 0 -302z m345 179 c65
-33 95 -88 95 -175 0 -74 -11 -108 -48 -148 -40 -43 -86 -58 -194 -64 l-98 -5
0 213 0 212 98 -4 c81 -3 108 -8 147 -29z"/>
<path d="M2590 489 l0 -301 173 4 c154 3 176 6 214 26 109 57 109 208 1 266
l-35 20 31 21 c65 44 68 157 5 216 -40 38 -98 49 -253 49 l-136 0 0 -301z
m290 198 c40 -20 56 -58 41 -95 -17 -40 -53 -52 -157 -52 l-84 0 0 80 0 80 88
0 c49 0 98 -6 112 -13z m29 -248 c35 -12 51 -35 51 -74 0 -67 -39 -85 -181
-85 l-99 0 0 85 0 85 99 0 c54 0 112 -5 130 -11z"/>
<path d="M1475 632 c-161 -77 -181 -305 -37 -406 79 -56 241 -46 301 17 l21
23 -24 23 -23 22 -34 -19 c-96 -55 -217 -22 -244 66 l-6 22 181 0 182 0 -4 70
c-3 57 -9 77 -33 111 -40 56 -94 83 -175 87 -48 2 -75 -2 -105 -16z m190 -93
c14 -13 27 -39 31 -56 l7 -33 -138 0 -137 0 7 27 c8 34 22 51 60 75 44 28 137
21 170 -13z"/>
</g>
</svg>
